<svg width="1062" height="8236" viewBox="0 0 1062 8236" fill="none" xmlns="http://www.w3.org/2000/svg">
<path d="M2.14893 0V606.194C-4.38535 786.79 45 1230.8 369 1363.57" stroke="#8000FF" stroke-width="2"/>
<path d="M367.919 1363.57C455 1398.09 544.237 1400.02 643 1436.15C873.599 1520.52 1103.09 1671.93 1053.8 1903.95C965.804 2318.2 218 2281.03 101.804 1951.75C20.3443 1720.91 241.804 1654.34 537.804 1829.6C813.786 1993.01 1023.7 2151.8 953.726 2333.95C943.32 2361.04 919.608 2380.13 893.204 2392.16C661.46 2497.8 537.804 2598.25 537.804 2851.95V4591.94C537.804 4645.92 562.857 4696.84 605.62 4729.78L718.185 4816.49C760.947 4849.43 786 4900.36 786 4954.33V8240" stroke="#8000FF" stroke-width="2"/>
</svg>
