<?xml version="1.0" encoding="utf-8"?>
<!-- Generator: Adobe Illustrator 22.1.0, SVG Export Plug-In . SVG Version: 6.00 Build 0)  -->
<svg version="1.1" id="Layer_1" xmlns="http://www.w3.org/2000/svg" xmlns:xlink="http://www.w3.org/1999/xlink" x="0px" y="0px"
	 viewBox="0 0 500 377" style="enable-background:new 0 0 500 377;" xml:space="preserve">
<style type="text/css">
	.st0{fill:none;stroke:#000000;stroke-width:12;}
	.st1{fill:none;}
	.st2{font-family:'ArialMT';}
	.st3{font-size:12px;}
	.st4{fill:#BC1BA5;}
	.st5{font-family:'Cormorant-Bold';}
	.st6{font-size:7px;}
</style>
<g>
	<path class="st0" d="M488,4.7v53.9c0,47.4-31.5,89.1-77.1,102L85.1,252.9C39.5,265.8,8,307.5,8,354.9v16.9"/>
	<path id="SVGID_x5F_1_x5F_" class="st1" d="M488,4.7v53.9c0,47.4-31.5,89.1-77.1,102L85.1,252.9C39.5,265.8,8,307.5,8,354.9v16.9"
		/>
	<text transform="matrix(1 0 0 1 0 1.682073e-05)" class="st2 st3"> </text>
	<text transform="matrix(1 0 0 1 488 6.7039)" class="st2 st3"> </text>
	<text transform="matrix(1 0 0 1 488 10.0379)" class="st4 st5 st6">L</text>
	<text transform="matrix(1 0 0 1 488 13.8529)" class="st4 st5 st6">o</text>
	<text transform="matrix(1 0 0 1 488 17.2759)" class="st4 st5 st6">r</text>
	<text transform="matrix(1 0 0 1 488 19.9289)" class="st4 st5 st6">e</text>
	<text transform="matrix(1 0 0 1 488 22.8549)" class="st4 st5 st6">m</text>
	<text transform="matrix(1 0 0 1 488 28.2938)" class="st4 st5 st6"> </text>
	<text transform="matrix(1 0 0 1 488 29.9317)" class="st4 st5 st6">i</text>
	<text transform="matrix(1 0 0 1 488 31.7727)" class="st4 st5 st6">p</text>
	<text transform="matrix(1 0 0 1 488 35.3635)" class="st4 st5 st6">s</text>
	<text transform="matrix(1 0 0 1 488 37.7225)" class="st4 st5 st6">u</text>
	<text transform="matrix(1 0 0 1 488 41.2574)" class="st4 st5 st6">m</text>
	<text transform="matrix(1 0 0 1 488 46.6964)" class="st4 st5 st6"> </text>
	<text transform="matrix(1 0 0 1 488 48.3343)" class="st4 st5 st6">d</text>
	<text transform="matrix(1 0 0 1 488 51.9043)" class="st4 st5 st6">o</text>
	<text transform="matrix(1 0 0 1 488 55.3272)" class="st4 st5 st6">l</text>
	<text transform="matrix(1 0 0 1 488.0046 57.2032)" class="st4 st5 st6">o</text>
	<text transform="matrix(1 0 0 1 487.989 60.6263)" class="st4 st5 st6">r</text>
	<text transform="matrix(1 0 0 1 487.9007 63.2778)" class="st4 st5 st6"> </text>
	<text transform="matrix(1 0 0 1 487.8196 64.9139)" class="st4 st5 st6">s</text>
	<text transform="matrix(1 0 0 1 487.6513 67.2668)" class="st4 st5 st6">i</text>
	<text transform="matrix(1 0 0 1 487.4881 69.1006)" class="st4 st5 st6">t</text>
	<text transform="matrix(1 0 0 1 487.2268 71.438)" class="st4 st5 st6"> </text>
	<text transform="matrix(1 0 0 1 487.0236 73.0635)" class="st4 st5 st6">a</text>
	<text transform="matrix(1 0 0 1 486.6063 75.9819)" class="st4 st5 st6">m</text>
	<text transform="matrix(1 0 0 1 485.5544 81.3183)" class="st4 st5 st6">e</text>
	<text transform="matrix(1 0 0 1 484.8848 84.1668)" class="st4 st5 st6">t</text>
	<text transform="matrix(1 0 0 1 484.2888 86.442)" class="st4 st5 st6">,</text>
	<text transform="matrix(1 0 0 1 483.87 87.9385)" class="st4 st5 st6"> </text>
	<text transform="matrix(1 0 0 1 483.4114 89.5111)" class="st4 st5 st6">c</text>
	<text transform="matrix(1 0 0 1 482.507 92.3455)" class="st4 st5 st6">o</text>
	<text transform="matrix(1 0 0 1 481.3665 95.5733)" class="st4 st5 st6">n</text>
	<text transform="matrix(1 0 0 1 480.0131 98.9975)" class="st4 st5 st6">s</text>
	<text transform="matrix(1 0 0 1 479.0926 101.1697)" class="st4 st5 st6">e</text>
	<text transform="matrix(1 0 0 1 477.8803 103.8329)" class="st4 st5 st6">c</text>
	<text transform="matrix(1 0 0 1 476.5692 106.5034)" class="st4 st5 st6">t</text>
	<text transform="matrix(1 0 0 1 475.4858 108.5913)" class="st4 st5 st6">e</text>
	<text transform="matrix(1 0 0 1 474.067 111.1503)" class="st4 st5 st6">t</text>
	<text transform="matrix(1 0 0 1 472.8852 113.1842)" class="st4 st5 st6">u</text>
	<text transform="matrix(1 0 0 1 471.0109 116.1815)" class="st4 st5 st6">e</text>
	<text transform="matrix(1 0 0 1 469.3865 118.6153)" class="st4 st5 st6">r</text>
	<text transform="matrix(1 0 0 1 467.8535 120.7806)" class="st4 st5 st6"> </text>
	<text transform="matrix(1 0 0 1 466.8884 122.1043)" class="st4 st5 st6">a</text>
	<text transform="matrix(1 0 0 1 465.0949 124.443)" class="st4 st5 st6">d</text>
	<text transform="matrix(1 0 0 1 462.8237 127.1973)" class="st4 st5 st6">i</text>
	<text transform="matrix(1 0 0 1 461.6294 128.5984)" class="st4 st5 st6">p</text>
	<text transform="matrix(1 0 0 1 459.2063 131.2491)" class="st4 st5 st6">i</text>
	<text transform="matrix(1 0 0 1 457.9358 132.5815)" class="st4 st5 st6">s</text>
	<text transform="matrix(1 0 0 1 456.2747 134.2566)" class="st4 st5 st6">c</text>
	<text transform="matrix(1 0 0 1 454.1213 136.3063)" class="st4 st5 st6">i</text>
	<text transform="matrix(1 0 0 1 452.7697 137.5571)" class="st4 st5 st6">n</text>
	<text transform="matrix(1 0 0 1 449.9813 139.9682)" class="st4 st5 st6">g</text>
	<text transform="matrix(1 0 0 1 447.5247 141.951)" class="st4 st5 st6"> </text>
	<text transform="matrix(1 0 0 1 446.234 142.9597)" class="st4 st5 st6">e</text>
	<text transform="matrix(1 0 0 1 443.8792 144.6966)" class="st4 st5 st6">l</text>
	<text transform="matrix(1 0 0 1 442.3466 145.7786)" class="st4 st5 st6">i</text>
	<text transform="matrix(1 0 0 1 440.8257 146.816)" class="st4 st5 st6">t</text>
	<text transform="matrix(1 0 0 1 438.853 148.0967)" class="st4 st5 st6">,</text>
	<text transform="matrix(1 0 0 1 437.5357 148.9209)" class="st4 st5 st6"> </text>
	<text transform="matrix(1 0 0 1 436.1356 149.7713)" class="st4 st5 st6">s</text>
	<text transform="matrix(1 0 0 1 434.0957 150.9564)" class="st4 st5 st6">e</text>
	<text transform="matrix(1 0 0 1 431.5295 152.3631)" class="st4 st5 st6">d</text>
	<text transform="matrix(1 0 0 1 428.3396 153.9658)" class="st4 st5 st6"> </text>
	<text transform="matrix(1 0 0 1 426.8655 154.6806)" class="st4 st5 st6">d</text>
	<text transform="matrix(1 0 0 1 423.6007 156.1248)" class="st4 st5 st6">i</text>
	<text transform="matrix(1 0 0 1 421.903 156.8373)" class="st4 st5 st6">a</text>
	<text transform="matrix(1 0 0 1 419.1649 157.9299)" class="st4 st5 st6">m</text>
	<text transform="matrix(1 0 0 1 414.0124 159.6714)" class="st4 st5 st6"> </text>
	<text transform="matrix(1 0 0 1 412.4492 160.1611)" class="st4 st5 st6">n</text>
	<text transform="matrix(1 0 0 1 408.9067 161.1647)" class="st4 st5 st6">o</text>
	<text transform="matrix(1 0 0 1 405.6133 162.0977)" class="st4 st5 st6">n</text>
	<text transform="matrix(1 0 0 1 402.0708 163.1013)" class="st4 st5 st6">u</text>
	<text transform="matrix(1 0 0 1 398.6697 164.0649)" class="st4 st5 st6">m</text>
	<text transform="matrix(1 0 0 1 393.4367 165.5474)" class="st4 st5 st6">m</text>
	<text transform="matrix(1 0 0 1 388.2037 167.0299)" class="st4 st5 st6">y</text>
	<text transform="matrix(1 0 0 1 385.328 167.8446)" class="st4 st5 st6"> </text>
	<text transform="matrix(1 0 0 1 383.7521 168.2911)" class="st4 st5 st6">n</text>
	<text transform="matrix(1 0 0 1 380.2096 169.2947)" class="st4 st5 st6">i</text>
	<text transform="matrix(1 0 0 1 378.4384 169.7965)" class="st4 st5 st6">b</text>
	<text transform="matrix(1 0 0 1 374.9632 170.781)" class="st4 st5 st6">h</text>
	<text transform="matrix(1 0 0 1 371.5352 171.7522)" class="st4 st5 st6"> </text>
	<text transform="matrix(1 0 0 1 369.9593 172.1986)" class="st4 st5 st6">e</text>
	<text transform="matrix(1 0 0 1 367.1441 172.9962)" class="st4 st5 st6">u</text>
	<text transform="matrix(1 0 0 1 363.743 173.9597)" class="st4 st5 st6">i</text>
	<text transform="matrix(1 0 0 1 361.9718 174.4615)" class="st4 st5 st6">s</text>
	<text transform="matrix(1 0 0 1 359.7022 175.1045)" class="st4 st5 st6">m</text>
	<text transform="matrix(1 0 0 1 354.4692 176.587)" class="st4 st5 st6">o</text>
	<text transform="matrix(1 0 0 1 351.1758 177.52)" class="st4 st5 st6">d</text>
	<text transform="matrix(1 0 0 1 347.7411 178.4931)" class="st4 st5 st6"> </text>
	<text transform="matrix(1 0 0 1 346.1652 178.9396)" class="st4 st5 st6">t</text>
	<text transform="matrix(1 0 0 1 343.9022 179.5807)" class="st4 st5 st6">i</text>
	<text transform="matrix(1 0 0 1 342.131 180.0824)" class="st4 st5 st6">n</text>
	<text transform="matrix(1 0 0 1 338.5886 181.086)" class="st4 st5 st6">c</text>
	<text transform="matrix(1 0 0 1 335.7263 181.8969)" class="st4 st5 st6">i</text>
	<text transform="matrix(1 0 0 1 333.9551 182.3987)" class="st4 st5 st6">d</text>
	<text transform="matrix(1 0 0 1 330.5204 183.3718)" class="st4 st5 st6">u</text>
	<text transform="matrix(1 0 0 1 327.1193 184.3353)" class="st4 st5 st6">n</text>
	<text transform="matrix(1 0 0 1 323.5768 185.3389)" class="st4 st5 st6">t</text>
	<text transform="matrix(1 0 0 1 321.3139 185.98)" class="st4 st5 st6"> </text>
	<text transform="matrix(1 0 0 1 319.738 186.4265)" class="st4 st5 st6">u</text>
	<text transform="matrix(1 0 0 1 316.3369 187.39)" class="st4 st5 st6">t</text>
	<text transform="matrix(1 0 0 1 314.074 188.0311)" class="st4 st5 st6"> </text>
	<text transform="matrix(1 0 0 1 312.4981 188.4776)" class="st4 st5 st6">l</text>
	<text transform="matrix(1 0 0 1 310.6932 188.9889)" class="st4 st5 st6">a</text>
	<text transform="matrix(1 0 0 1 307.8578 189.7921)" class="st4 st5 st6">o</text>
	<text transform="matrix(1 0 0 1 304.5645 190.7252)" class="st4 st5 st6">r</text>
	<text transform="matrix(1 0 0 1 302.0119 191.4483)" class="st4 st5 st6">e</text>
	<text transform="matrix(1 0 0 1 299.1967 192.2458)" class="st4 st5 st6">e</text>
	<text transform="matrix(1 0 0 1 296.3815 193.0434)" class="st4 st5 st6">t</text>
	<text transform="matrix(1 0 0 1 294.1186 193.6845)" class="st4 st5 st6"> </text>
	<text transform="matrix(1 0 0 1 292.5427 194.131)" class="st4 st5 st6">d</text>
	<text transform="matrix(1 0 0 1 289.1079 195.104)" class="st4 st5 st6">o</text>
	<text transform="matrix(1 0 0 1 285.8145 196.0371)" class="st4 st5 st6">l</text>
	<text transform="matrix(1 0 0 1 284.0096 196.5484)" class="st4 st5 st6">o</text>
	<text transform="matrix(1 0 0 1 280.7163 197.4814)" class="st4 st5 st6">r</text>
	<text transform="matrix(1 0 0 1 278.1637 198.2045)" class="st4 st5 st6">e</text>
	<text transform="matrix(1 0 0 1 275.3486 199.0021)" class="st4 st5 st6"> </text>
	<text transform="matrix(1 0 0 1 273.7726 199.4486)" class="st4 st5 st6">m</text>
	<text transform="matrix(1 0 0 1 268.5396 200.9311)" class="st4 st5 st6">a</text>
	<text transform="matrix(1 0 0 1 265.7043 201.7343)" class="st4 st5 st6">g</text>
	<text transform="matrix(1 0 0 1 262.6669 202.5948)" class="st4 st5 st6">n</text>
	<text transform="matrix(1 0 0 1 259.1244 203.5985)" class="st4 st5 st6">a</text>
	<text transform="matrix(1 0 0 1 256.289 204.4017)" class="st4 st5 st6"> </text>
	<text transform="matrix(1 0 0 1 254.7131 204.8482)" class="st4 st5 st6">a</text>
	<text transform="matrix(1 0 0 1 251.8778 205.6514)" class="st4 st5 st6">l</text>
	<text transform="matrix(1 0 0 1 250.0728 206.1628)" class="st4 st5 st6">i</text>
	<text transform="matrix(1 0 0 1 248.3017 206.6646)" class="st4 st5 st6">q</text>
	<text transform="matrix(1 0 0 1 244.9207 207.6224)" class="st4 st5 st6">u</text>
	<text transform="matrix(1 0 0 1 241.5197 208.5859)" class="st4 st5 st6">a</text>
	<text transform="matrix(1 0 0 1 238.6843 209.3892)" class="st4 st5 st6">m</text>
	<text transform="matrix(1 0 0 1 233.4514 210.8717)" class="st4 st5 st6"> </text>
	<text transform="matrix(1 0 0 1 231.8754 211.3181)" class="st4 st5 st6">L</text>
	<text transform="matrix(1 0 0 1 228.2049 212.358)" class="st4 st5 st6">o</text>
	<text transform="matrix(1 0 0 1 224.9115 213.291)" class="st4 st5 st6">r</text>
	<text transform="matrix(1 0 0 1 222.359 214.0142)" class="st4 st5 st6">e</text>
	<text transform="matrix(1 0 0 1 219.5438 214.8117)" class="st4 st5 st6">m</text>
	<text transform="matrix(1 0 0 1 214.3108 216.2943)" class="st4 st5 st6"> </text>
	<text transform="matrix(1 0 0 1 212.7349 216.7407)" class="st4 st5 st6">i</text>
	<text transform="matrix(1 0 0 1 210.9637 217.2425)" class="st4 st5 st6">p</text>
	<text transform="matrix(1 0 0 1 207.5088 218.2213)" class="st4 st5 st6">s</text>
	<text transform="matrix(1 0 0 1 205.2392 218.8643)" class="st4 st5 st6">u</text>
	<text transform="matrix(1 0 0 1 201.8381 219.8278)" class="st4 st5 st6">m</text>
	<text transform="matrix(1 0 0 1 196.6051 221.3103)" class="st4 st5 st6"> </text>
	<text transform="matrix(1 0 0 1 195.0292 221.7568)" class="st4 st5 st6">d</text>
	<text transform="matrix(1 0 0 1 191.5944 222.7299)" class="st4 st5 st6">o</text>
	<text transform="matrix(1 0 0 1 188.3011 223.6629)" class="st4 st5 st6">l</text>
	<text transform="matrix(1 0 0 1 186.4962 224.1742)" class="st4 st5 st6">o</text>
	<text transform="matrix(1 0 0 1 183.2028 225.1072)" class="st4 st5 st6">r</text>
	<text transform="matrix(1 0 0 1 180.6503 225.8304)" class="st4 st5 st6"> </text>
	<text transform="matrix(1 0 0 1 179.0743 226.2768)" class="st4 st5 st6">s</text>
	<text transform="matrix(1 0 0 1 176.8047 226.9198)" class="st4 st5 st6">i</text>
	<text transform="matrix(1 0 0 1 175.0335 227.4216)" class="st4 st5 st6">t</text>
	<text transform="matrix(1 0 0 1 172.7706 228.0627)" class="st4 st5 st6"> </text>
	<text transform="matrix(1 0 0 1 171.1947 228.5092)" class="st4 st5 st6">a</text>
	<text transform="matrix(1 0 0 1 168.3593 229.3124)" class="st4 st5 st6">m</text>
	<text transform="matrix(1 0 0 1 163.1264 230.7949)" class="st4 st5 st6">e</text>
	<text transform="matrix(1 0 0 1 160.3112 231.5925)" class="st4 st5 st6">t</text>
	<text transform="matrix(1 0 0 1 158.0482 232.2336)" class="st4 st5 st6">,</text>
	<text transform="matrix(1 0 0 1 156.5532 232.6571)" class="st4 st5 st6"> </text>
	<text transform="matrix(1 0 0 1 154.9772 233.1036)" class="st4 st5 st6">c</text>
	<text transform="matrix(1 0 0 1 152.1149 233.9145)" class="st4 st5 st6">o</text>
	<text transform="matrix(1 0 0 1 148.8216 234.8475)" class="st4 st5 st6">n</text>
	<text transform="matrix(1 0 0 1 145.2791 235.8511)" class="st4 st5 st6">s</text>
	<text transform="matrix(1 0 0 1 143.0095 236.4941)" class="st4 st5 st6">e</text>
	<text transform="matrix(1 0 0 1 140.1943 237.2916)" class="st4 st5 st6">c</text>
	<text transform="matrix(1 0 0 1 137.332 238.1026)" class="st4 st5 st6">t</text>
	<text transform="matrix(1 0 0 1 135.0691 238.7436)" class="st4 st5 st6">e</text>
	<text transform="matrix(1 0 0 1 132.2539 239.5412)" class="st4 st5 st6">t</text>
	<text transform="matrix(1 0 0 1 129.991 240.1823)" class="st4 st5 st6">u</text>
	<text transform="matrix(1 0 0 1 126.5899 241.1458)" class="st4 st5 st6">e</text>
	<text transform="matrix(1 0 0 1 123.7747 241.9434)" class="st4 st5 st6">r</text>
	<text transform="matrix(1 0 0 1 121.2222 242.6665)" class="st4 st5 st6"> </text>
	<text transform="matrix(1 0 0 1 119.6462 243.113)" class="st4 st5 st6">a</text>
	<text transform="matrix(1 0 0 1 116.8109 243.9162)" class="st4 st5 st6">d</text>
	<text transform="matrix(1 0 0 1 113.3761 244.8893)" class="st4 st5 st6">i</text>
	<text transform="matrix(1 0 0 1 111.6049 245.3911)" class="st4 st5 st6">p</text>
	<text transform="matrix(1 0 0 1 108.15 246.3699)" class="st4 st5 st6">i</text>
	<text transform="matrix(1 0 0 1 106.3788 246.8717)" class="st4 st5 st6">s</text>
	<text transform="matrix(1 0 0 1 104.1092 247.5147)" class="st4 st5 st6">c</text>
	<text transform="matrix(1 0 0 1 101.2469 248.3255)" class="st4 st5 st6">i</text>
	<text transform="matrix(1 0 0 1 99.4758 248.8273)" class="st4 st5 st6">n</text>
	<text transform="matrix(1 0 0 1 95.9333 249.8309)" class="st4 st5 st6">g</text>
	<text transform="matrix(1 0 0 1 92.8959 250.6914)" class="st4 st5 st6"> </text>
	<text transform="matrix(1 0 0 1 91.32 251.1379)" class="st4 st5 st6">e</text>
	<text transform="matrix(1 0 0 1 88.5048 251.9354)" class="st4 st5 st6">l</text>
	<text transform="matrix(1 0 0 1 86.6999 252.4468)" class="st4 st5 st6">i</text>
	<text transform="matrix(1 0 0 1 84.9269 252.9424)" class="st4 st5 st6">t</text>
	<text transform="matrix(1 0 0 1 82.673 253.6148)" class="st4 st5 st6">,</text>
	<text transform="matrix(1 0 0 1 81.1914 254.0837)" class="st4 st5 st6"> </text>
	<text transform="matrix(1 0 0 1 79.6364 254.5985)" class="st4 st5 st6">s</text>
	<text transform="matrix(1 0 0 1 77.4115 255.3832)" class="st4 st5 st6">e</text>
	<text transform="matrix(1 0 0 1 74.6765 256.4245)" class="st4 st5 st6">d</text>
	<text transform="matrix(1 0 0 1 71.3877 257.8133)" class="st4 st5 st6"> </text>
	<text transform="matrix(1 0 0 1 69.8876 258.4717)" class="st4 st5 st6">d</text>
	<text transform="matrix(1 0 0 1 66.671 260.0201)" class="st4 st5 st6">i</text>
	<text transform="matrix(1 0 0 1 65.0277 260.8503)" class="st4 st5 st6">a</text>
	<text transform="matrix(1 0 0 1 62.4203 262.226)" class="st4 st5 st6">m</text>
	<text transform="matrix(1 0 0 1 57.7539 265.0201)" class="st4 st5 st6"> </text>
	<text transform="matrix(1 0 0 1 56.3653 265.8893)" class="st4 st5 st6">n</text>
	<text transform="matrix(1 0 0 1 53.3118 267.9471)" class="st4 st5 st6">o</text>
	<text transform="matrix(1 0 0 1 50.5364 269.9512)" class="st4 st5 st6">n</text>
	<text transform="matrix(1 0 0 1 47.6259 272.2099)" class="st4 st5 st6">u</text>
	<text transform="matrix(1 0 0 1 44.8922 274.4573)" class="st4 st5 st6">m</text>
	<text transform="matrix(1 0 0 1 40.8623 278.1084)" class="st4 st5 st6">m</text>
	<text transform="matrix(1 0 0 1 37.0408 281.9795)" class="st4 st5 st6">y</text>
	<text transform="matrix(1 0 0 1 35.0227 284.1839)" class="st4 st5 st6"> </text>
	<text transform="matrix(1 0 0 1 33.9304 285.4049)" class="st4 st5 st6">n</text>
	<text transform="matrix(1 0 0 1 31.5762 288.2357)" class="st4 st5 st6">i</text>
	<text transform="matrix(1 0 0 1 30.4227 289.6704)" class="st4 st5 st6">b</text>
	<text transform="matrix(1 0 0 1 28.2504 292.5561)" class="st4 st5 st6">h</text>
	<text transform="matrix(1 0 0 1 26.214 295.4798)" class="st4 st5 st6"> </text>
	<text transform="matrix(1 0 0 1 25.3006 296.8398)" class="st4 st5 st6">e</text>
	<text transform="matrix(1 0 0 1 23.728 299.3077)" class="st4 st5 st6">u</text>
	<text transform="matrix(1 0 0 1 21.9337 302.3535)" class="st4 st5 st6">i</text>
	<text transform="matrix(1 0 0 1 21.0327 303.9587)" class="st4 st5 st6">s</text>
	<text transform="matrix(1 0 0 1 19.8965 306.0272)" class="st4 st5 st6">m</text>
	<text transform="matrix(1 0 0 1 17.5319 310.9256)" class="st4 st5 st6">o</text>
	<text transform="matrix(1 0 0 1 16.1605 314.0622)" class="st4 st5 st6">d</text>
	<text transform="matrix(1 0 0 1 14.8512 317.3835)" class="st4 st5 st6"> </text>
	<text transform="matrix(1 0 0 1 14.2799 318.9186)" class="st4 st5 st6">t</text>
	<text transform="matrix(1 0 0 1 13.5082 321.1405)" class="st4 st5 st6">i</text>
	<text transform="matrix(1 0 0 1 12.9254 322.8869)" class="st4 st5 st6">n</text>
	<text transform="matrix(1 0 0 1 11.8797 326.4176)" class="st4 st5 st6">c</text>
	<text transform="matrix(1 0 0 1 11.127 329.2961)" class="st4 st5 st6">i</text>
	<text transform="matrix(1 0 0 1 10.6873 331.084)" class="st4 st5 st6">d</text>
	<text transform="matrix(1 0 0 1 9.9449 334.5763)" class="st4 st5 st6">u</text>
	<text transform="matrix(1 0 0 1 9.325 338.0567)" class="st4 st5 st6">n</text>
	<text transform="matrix(1 0 0 1 8.814 341.7032)" class="st4 st5 st6">t</text>
	<text transform="matrix(1 0 0 1 8.5514 344.0405)" class="st4 st5 st6"> </text>
	<text transform="matrix(1 0 0 1 8.3854 345.6702)" class="st4 st5 st6">u</text>
	<text transform="matrix(1 0 0 1 8.1459 349.1969)" class="st4 st5 st6">t</text>
	<text transform="matrix(1 0 0 1 8.0495 351.547)" class="st4 st5 st6"> </text>
	<text transform="matrix(1 0 0 1 8.0096 353.1846)" class="st4 st5 st6">l</text>
	<text transform="matrix(1 0 0 1 8 355.0605)" class="st4 st5 st6">a</text>
	<text transform="matrix(1 0 0 1 8 358.0074)" class="st4 st5 st6">o</text>
	<text transform="matrix(1 0 0 1 8 361.4304)" class="st4 st5 st6">r</text>
	<text transform="matrix(1 0 0 1 8 364.0833)" class="st4 st5 st6">e</text>
	<text transform="matrix(1 0 0 1 8 367.0094)" class="st4 st5 st6">e</text>
	<text transform="matrix(1 0 0 1 8 369.9354)" class="st4 st5 st6">t</text>
	<text transform="matrix(1 0 0 1 0 1.682073e-05)" class="st2 st3"> </text>
</g>
<path class="st0" d="M8,371.8v-16.9c0-47.4,31.5-89.1,77.1-102l325.8-92.3c45.6-12.9,77.1-54.6,77.1-102V4.7"/>
</svg>
