<svg width="1062" height="4580" viewBox="0 0 1062 4580" fill="none" xmlns="http://www.w3.org/2000/svg">
<path d="M2.14893 0V456.567C-4.38535 592.587 45 927 369 1027" stroke="#8000FF" stroke-width="2"/>
<path d="M367.919 1027C455 1053 544.237 1054.45 643 1081.66C873.599 1145.21 1103.09 1259.25 1053.8 1434C965.804 1746 218 1718 101.804 1470C20.3443 1296.14 241.804 1246 537.804 1378C810.333 1499.53 1018.44 1617.68 956.221 1752.72C944.844 1777.42 920.147 1792.47 894.426 1801.29C661.894 1881.01 537.804 1956.59 537.804 2148V3095.79C537.804 3157.82 570.829 3215.16 624.484 3246.29L699.32 3289.71C752.975 3320.84 786 3378.18 786 3440.21V4580" stroke="#8000FF" stroke-width="2"/>
</svg>
