<svg width="1040" height="4577" viewBox="0 0 1040 4577" fill="none" xmlns="http://www.w3.org/2000/svg">
<path d="M3.14884 0V456.567C-3.38544 592.587 1.18856 903.032 71.7588 1056.66C159.972 1248.68 778.686 1592.73 768.885 1964.79C761.044 2262.43 765.618 2747.57 768.885 2952.93V3303.71C768.885 3363.83 724.012 3414.2 664.859 3424.91C397.47 3473.3 21.2157 3596.95 83 3816C171 4128 1003 4060 1035 3852C1067 3644 895 3628 599 3760C303 3892 -29 4076 199 4172C381.4 4248.8 331 4473.33 283 4576" stroke="#8000FF" stroke-width="2"/>
</svg>
