<svg width="376" height="394" viewBox="0 0 376 394" fill="none" xmlns="http://www.w3.org/2000/svg">
<path d="M122.06 37.936C122.146 37.936 122.189 38.1653 122.189 38.624C122.189 38.9393 122.16 39.2403 122.103 39.527C122.074 39.8137 122.031 39.957 121.974 39.957L119.136 39.828V45.805C119.136 46.0917 119.021 46.2923 118.792 46.407L115.395 48.084C115.223 48.1413 115.137 48.17 115.137 48.17C115.051 48.17 115.008 48.0553 115.008 47.826V39.699C113.288 39.6703 110.106 39.656 105.462 39.656C105.319 39.656 105.204 39.5987 105.118 39.484C105.032 39.3693 105.046 39.2547 105.161 39.14L118.491 22.972C118.548 22.9147 118.634 22.886 118.749 22.886C118.835 22.886 118.921 22.9147 119.007 22.972C119.093 23.0007 119.136 23.058 119.136 23.144V38.022C119.709 38.022 120.684 37.9933 122.06 37.936ZM108.042 38.194C111.367 38.194 113.689 38.1797 115.008 38.151V29.465L107.827 37.893C107.655 38.0937 107.727 38.194 108.042 38.194ZM141.67 37.936C141.756 37.936 141.799 38.1653 141.799 38.624C141.799 38.9393 141.771 39.2403 141.713 39.527C141.685 39.8137 141.642 39.957 141.584 39.957L138.746 39.828V45.805C138.746 46.0917 138.632 46.2923 138.402 46.407L135.005 48.084C134.833 48.1413 134.747 48.17 134.747 48.17C134.661 48.17 134.618 48.0553 134.618 47.826V39.699C132.898 39.6703 129.716 39.656 125.072 39.656C124.929 39.656 124.814 39.5987 124.728 39.484C124.642 39.3693 124.657 39.2547 124.771 39.14L138.101 22.972C138.159 22.9147 138.245 22.886 138.359 22.886C138.445 22.886 138.531 22.9147 138.617 22.972C138.703 23.0007 138.746 23.058 138.746 23.144V38.022C139.32 38.022 140.294 37.9933 141.67 37.936ZM127.652 38.194C130.978 38.194 133.3 38.1797 134.618 38.151V29.465L127.437 37.893C127.265 38.0937 127.337 38.194 127.652 38.194ZM113.546 86.367C115.553 86.6823 117.058 87.4133 118.061 88.56C119.093 89.7067 119.609 91.0253 119.609 92.516C119.609 93.8633 119.122 95.2393 118.147 96.644C117.201 98.0487 115.725 99.3673 113.718 100.6C111.74 101.861 109.275 102.936 106.322 103.825C106.207 103.854 106.107 103.796 106.021 103.653C105.964 103.51 105.992 103.409 106.107 103.352C109.232 102.091 111.482 100.514 112.858 98.622C114.234 96.7587 114.922 94.9097 114.922 93.075C114.922 91.3837 114.492 90.0363 113.632 89.033C112.772 88.001 111.611 87.485 110.149 87.485C109.576 87.485 108.988 87.571 108.386 87.743C108.3 87.7717 108.228 87.7 108.171 87.528C108.114 87.356 108.128 87.2557 108.214 87.227C110.221 86.711 111.683 85.937 112.6 84.905C113.517 83.8443 113.976 82.368 113.976 80.476C113.976 79.0427 113.761 77.9533 113.331 77.208C112.901 76.434 112.27 76.047 111.439 76.047C110.235 76.047 109.131 76.4627 108.128 77.294C107.153 78.1253 106.351 79.3293 105.72 80.906C105.72 80.9347 105.663 80.949 105.548 80.949C105.29 80.949 105.175 80.8917 105.204 80.777L106.795 74.499C106.852 74.4417 106.91 74.413 106.967 74.413C107.053 74.413 107.139 74.4417 107.225 74.499C107.311 74.5277 107.34 74.5563 107.311 74.585C107.254 74.8143 107.225 74.972 107.225 75.058C107.225 75.5453 107.469 75.789 107.956 75.789C108.3 75.789 108.787 75.6743 109.418 75.445C110.106 75.2443 110.694 75.101 111.181 75.015C111.668 74.9003 112.227 74.843 112.858 74.843C114.578 74.843 115.911 75.3303 116.857 76.305C117.832 77.251 118.319 78.3977 118.319 79.745C118.319 81.121 117.889 82.4253 117.029 83.658C116.198 84.862 115.037 85.765 113.546 86.367ZM122.686 92C122.6 92 122.557 91.914 122.557 91.742C122.557 91.57 122.6 91.484 122.686 91.484C123.804 91.484 124.621 91.4123 125.137 91.269C125.682 91.1257 126.054 90.8533 126.255 90.452C126.456 90.022 126.556 89.377 126.556 88.517V80.949C126.556 80.0317 126.456 79.3867 126.255 79.014C126.083 78.6127 125.753 78.412 125.266 78.412C124.807 78.412 123.89 78.6843 122.514 79.229H122.471C122.385 79.229 122.313 79.1573 122.256 79.014C122.199 78.8707 122.227 78.7703 122.342 78.713L130.168 75.015C130.197 74.9863 130.24 74.972 130.297 74.972C130.383 74.972 130.455 75.015 130.512 75.101C130.569 75.1583 130.598 75.23 130.598 75.316V88.517C130.598 89.4057 130.684 90.0507 130.856 90.452C131.028 90.8533 131.372 91.1257 131.888 91.269C132.404 91.4123 133.221 91.484 134.339 91.484C134.425 91.484 134.468 91.57 134.468 91.742C134.468 91.914 134.425 92 134.339 92C133.307 92 132.504 91.9857 131.931 91.957L128.534 91.914L125.137 91.957C124.535 91.9857 123.718 92 122.686 92Z" fill="white"/>
<line x1="85" y1="58.5" x2="170" y2="58.5" stroke="white"/>
<path d="M234.763 315C234.677 315 234.634 314.914 234.634 314.742C234.634 314.57 234.677 314.484 234.763 314.484C235.881 314.484 236.698 314.412 237.214 314.269C237.759 314.126 238.131 313.853 238.332 313.452C238.533 313.022 238.633 312.377 238.633 311.517V303.949C238.633 303.032 238.533 302.387 238.332 302.014C238.16 301.613 237.83 301.412 237.343 301.412C236.884 301.412 235.967 301.684 234.591 302.229H234.548C234.462 302.229 234.39 302.157 234.333 302.014C234.276 301.871 234.304 301.77 234.419 301.713L242.245 298.015C242.274 297.986 242.317 297.972 242.374 297.972C242.46 297.972 242.532 298.015 242.589 298.101C242.646 298.158 242.675 298.23 242.675 298.316V311.517C242.675 312.406 242.761 313.051 242.933 313.452C243.105 313.853 243.449 314.126 243.965 314.269C244.481 314.412 245.298 314.484 246.416 314.484C246.502 314.484 246.545 314.57 246.545 314.742C246.545 314.914 246.502 315 246.416 315C245.384 315 244.581 314.986 244.008 314.957L240.611 314.914L237.214 314.957C236.612 314.986 235.795 315 234.763 315ZM256.823 309.367C258.83 309.682 260.335 310.413 261.338 311.56C262.37 312.707 262.886 314.025 262.886 315.516C262.886 316.863 262.399 318.239 261.424 319.644C260.478 321.049 259.002 322.367 256.995 323.6C255.017 324.861 252.552 325.936 249.599 326.825C249.485 326.854 249.384 326.796 249.298 326.653C249.241 326.51 249.27 326.409 249.384 326.352C252.509 325.091 254.759 323.514 256.135 321.622C257.511 319.759 258.199 317.91 258.199 316.075C258.199 314.384 257.769 313.036 256.909 312.033C256.049 311.001 254.888 310.485 253.426 310.485C252.853 310.485 252.265 310.571 251.663 310.743C251.577 310.772 251.506 310.7 251.448 310.528C251.391 310.356 251.405 310.256 251.491 310.227C253.498 309.711 254.96 308.937 255.877 307.905C256.795 306.844 257.253 305.368 257.253 303.476C257.253 302.043 257.038 300.953 256.608 300.208C256.178 299.434 255.548 299.047 254.716 299.047C253.512 299.047 252.409 299.463 251.405 300.294C250.431 301.125 249.628 302.329 248.997 303.906C248.997 303.935 248.94 303.949 248.825 303.949C248.567 303.949 248.453 303.892 248.481 303.777L250.072 297.499C250.13 297.442 250.187 297.413 250.244 297.413C250.33 297.413 250.416 297.442 250.502 297.499C250.588 297.528 250.617 297.556 250.588 297.585C250.531 297.814 250.502 297.972 250.502 298.058C250.502 298.545 250.746 298.789 251.233 298.789C251.577 298.789 252.065 298.674 252.695 298.445C253.383 298.244 253.971 298.101 254.458 298.015C254.946 297.9 255.505 297.843 256.135 297.843C257.855 297.843 259.188 298.33 260.134 299.305C261.109 300.251 261.596 301.398 261.596 302.745C261.596 304.121 261.166 305.425 260.306 306.658C259.475 307.862 258.314 308.765 256.823 309.367ZM234.763 367C234.677 367 234.634 366.914 234.634 366.742C234.634 366.57 234.677 366.484 234.763 366.484C235.881 366.484 236.698 366.412 237.214 366.269C237.759 366.126 238.131 365.853 238.332 365.452C238.533 365.022 238.633 364.377 238.633 363.517V355.949C238.633 355.032 238.533 354.387 238.332 354.014C238.16 353.613 237.83 353.412 237.343 353.412C236.884 353.412 235.967 353.684 234.591 354.229H234.548C234.462 354.229 234.39 354.157 234.333 354.014C234.276 353.871 234.304 353.77 234.419 353.713L242.245 350.015C242.274 349.986 242.317 349.972 242.374 349.972C242.46 349.972 242.532 350.015 242.589 350.101C242.646 350.158 242.675 350.23 242.675 350.316V363.517C242.675 364.406 242.761 365.051 242.933 365.452C243.105 365.853 243.449 366.126 243.965 366.269C244.481 366.412 245.298 366.484 246.416 366.484C246.502 366.484 246.545 366.57 246.545 366.742C246.545 366.914 246.502 367 246.416 367C245.384 367 244.581 366.986 244.008 366.957L240.611 366.914L237.214 366.957C236.612 366.986 235.795 367 234.763 367ZM265.337 364.936C265.423 364.936 265.466 365.165 265.466 365.624C265.466 365.939 265.438 366.24 265.38 366.527C265.352 366.814 265.309 366.957 265.251 366.957L262.413 366.828V372.805C262.413 373.092 262.299 373.292 262.069 373.407L258.672 375.084C258.5 375.141 258.414 375.17 258.414 375.17C258.328 375.17 258.285 375.055 258.285 374.826V366.699C256.565 366.67 253.383 366.656 248.739 366.656C248.596 366.656 248.481 366.599 248.395 366.484C248.309 366.369 248.324 366.255 248.438 366.14L261.768 349.972C261.826 349.915 261.912 349.886 262.026 349.886C262.112 349.886 262.198 349.915 262.284 349.972C262.37 350.001 262.413 350.058 262.413 350.144V365.022C262.987 365.022 263.961 364.993 265.337 364.936ZM251.319 365.194C254.645 365.194 256.967 365.18 258.285 365.151V356.465L251.104 364.893C250.932 365.094 251.004 365.194 251.319 365.194Z" fill="white"/>
<line x1="214" y1="333.5" x2="299" y2="333.5" stroke="white"/>
<path d="M316.06 308.936C316.146 308.936 316.189 309.165 316.189 309.624C316.189 309.939 316.16 310.24 316.103 310.527C316.074 310.814 316.031 310.957 315.974 310.957L313.136 310.828V316.805C313.136 317.092 313.021 317.292 312.792 317.407L309.395 319.084C309.223 319.141 309.137 319.17 309.137 319.17C309.051 319.17 309.008 319.055 309.008 318.826V310.699C307.288 310.67 304.106 310.656 299.462 310.656C299.319 310.656 299.204 310.599 299.118 310.484C299.032 310.369 299.046 310.255 299.161 310.14L312.491 293.972C312.548 293.915 312.634 293.886 312.749 293.886C312.835 293.886 312.921 293.915 313.007 293.972C313.093 294.001 313.136 294.058 313.136 294.144V309.022C313.709 309.022 314.684 308.993 316.06 308.936ZM302.042 309.194C305.367 309.194 307.689 309.18 309.008 309.151V300.465L301.827 308.893C301.655 309.094 301.727 309.194 302.042 309.194ZM331.241 296.165C332.589 296.996 333.678 297.742 334.509 298.401C335.369 299.06 336.086 299.849 336.659 300.766C337.233 301.683 337.519 302.744 337.519 303.948C337.519 305.41 337.089 306.729 336.229 307.904C335.369 309.051 334.208 309.954 332.746 310.613C331.284 311.244 329.693 311.559 327.973 311.559C326.253 311.559 324.72 311.244 323.372 310.613C322.054 309.954 321.022 309.079 320.276 307.99C319.56 306.901 319.201 305.711 319.201 304.421C319.201 302.902 319.689 301.468 320.663 300.121C321.638 298.774 322.971 297.67 324.662 296.81C322.77 295.262 321.824 293.571 321.824 291.736C321.824 290.503 322.168 289.486 322.856 288.683C323.544 287.88 324.404 287.293 325.436 286.92C326.497 286.519 327.572 286.318 328.661 286.318C329.951 286.318 331.084 286.547 332.058 287.006C333.062 287.436 333.821 287.995 334.337 288.683C334.853 289.371 335.111 290.073 335.111 290.79C335.111 291.707 334.739 292.653 333.993 293.628C333.277 294.603 332.273 295.391 330.983 295.993L331.241 296.165ZM328.231 287.221C327.429 287.221 326.784 287.493 326.296 288.038C325.838 288.554 325.608 289.213 325.608 290.016C325.608 291.105 326.01 292.066 326.812 292.897C327.615 293.728 328.819 294.66 330.424 295.692C331.112 294.001 331.456 292.61 331.456 291.521C331.456 290.26 331.141 289.228 330.51 288.425C329.88 287.622 329.12 287.221 328.231 287.221ZM329.134 310.613C330.482 310.613 331.557 310.126 332.359 309.151C333.162 308.176 333.563 307.015 333.563 305.668C333.563 304.693 333.32 303.833 332.832 303.088C332.374 302.314 331.786 301.669 331.069 301.153C330.353 300.608 329.407 299.978 328.231 299.261L327.5 298.788C326.898 298.415 326.268 298 325.608 297.541C325.006 298.258 324.519 299.118 324.146 300.121C323.802 301.124 323.63 302.171 323.63 303.26C323.63 304.55 323.86 305.768 324.318 306.915C324.806 308.033 325.465 308.936 326.296 309.624C327.156 310.283 328.102 310.613 329.134 310.613ZM307.546 357.367C309.553 357.682 311.058 358.413 312.061 359.56C313.093 360.707 313.609 362.025 313.609 363.516C313.609 364.863 313.122 366.239 312.147 367.644C311.201 369.049 309.725 370.367 307.718 371.6C305.74 372.861 303.275 373.936 300.322 374.825C300.207 374.854 300.107 374.796 300.021 374.653C299.964 374.51 299.992 374.409 300.107 374.352C303.232 373.091 305.482 371.514 306.858 369.622C308.234 367.759 308.922 365.91 308.922 364.075C308.922 362.384 308.492 361.036 307.632 360.033C306.772 359.001 305.611 358.485 304.149 358.485C303.576 358.485 302.988 358.571 302.386 358.743C302.3 358.772 302.228 358.7 302.171 358.528C302.114 358.356 302.128 358.256 302.214 358.227C304.221 357.711 305.683 356.937 306.6 355.905C307.517 354.844 307.976 353.368 307.976 351.476C307.976 350.043 307.761 348.953 307.331 348.208C306.901 347.434 306.27 347.047 305.439 347.047C304.235 347.047 303.131 347.463 302.128 348.294C301.153 349.125 300.351 350.329 299.72 351.906C299.72 351.935 299.663 351.949 299.548 351.949C299.29 351.949 299.175 351.892 299.204 351.777L300.795 345.499C300.852 345.442 300.91 345.413 300.967 345.413C301.053 345.413 301.139 345.442 301.225 345.499C301.311 345.528 301.34 345.556 301.311 345.585C301.254 345.814 301.225 345.972 301.225 346.058C301.225 346.545 301.469 346.789 301.956 346.789C302.3 346.789 302.787 346.674 303.418 346.445C304.106 346.244 304.694 346.101 305.181 346.015C305.668 345.9 306.227 345.843 306.858 345.843C308.578 345.843 309.911 346.33 310.857 347.305C311.832 348.251 312.319 349.398 312.319 350.745C312.319 352.121 311.889 353.425 311.029 354.658C310.198 355.862 309.037 356.765 307.546 357.367ZM325.243 363.559C323.466 363.559 321.875 363.172 320.47 362.398C319.094 361.624 318.005 360.563 317.202 359.216C316.428 357.84 316.041 356.306 316.041 354.615C316.041 352.924 316.428 351.419 317.202 350.1C318.005 348.753 319.094 347.706 320.47 346.961C321.875 346.216 323.466 345.843 325.243 345.843C327.02 345.843 328.597 346.23 329.973 347.004C331.349 347.749 332.41 348.796 333.155 350.143C333.929 351.49 334.316 353.01 334.316 354.701C334.316 356.392 333.929 357.912 333.155 359.259C332.381 360.606 331.306 361.667 329.93 362.441C328.554 363.186 326.992 363.559 325.243 363.559ZM325.673 362.656C326.992 362.656 327.981 362.011 328.64 360.721C329.328 359.431 329.672 357.625 329.672 355.303C329.672 352.408 329.213 350.258 328.296 348.853C327.407 347.448 326.275 346.746 324.899 346.746C323.552 346.746 322.505 347.42 321.76 348.767C321.015 350.086 320.642 351.877 320.642 354.142C320.642 356.693 321.101 358.757 322.018 360.334C322.935 361.882 324.154 362.656 325.673 362.656Z" fill="white"/>
<line x1="298.616" y1="331.511" x2="351" y2="331.511" stroke="white"/>
<path d="M227.546 123.367C229.553 123.682 231.058 124.413 232.061 125.56C233.093 126.707 233.609 128.025 233.609 129.516C233.609 130.863 233.122 132.239 232.147 133.644C231.201 135.049 229.725 136.367 227.718 137.6C225.74 138.861 223.275 139.936 220.322 140.825C220.207 140.854 220.107 140.796 220.021 140.653C219.964 140.51 219.992 140.409 220.107 140.352C223.232 139.091 225.482 137.514 226.858 135.622C228.234 133.759 228.922 131.91 228.922 130.075C228.922 128.384 228.492 127.036 227.632 126.033C226.772 125.001 225.611 124.485 224.149 124.485C223.576 124.485 222.988 124.571 222.386 124.743C222.3 124.772 222.228 124.7 222.171 124.528C222.114 124.356 222.128 124.256 222.214 124.227C224.221 123.711 225.683 122.937 226.6 121.905C227.517 120.844 227.976 119.368 227.976 117.476C227.976 116.043 227.761 114.953 227.331 114.208C226.901 113.434 226.27 113.047 225.439 113.047C224.235 113.047 223.131 113.463 222.128 114.294C221.153 115.125 220.351 116.329 219.72 117.906C219.72 117.935 219.663 117.949 219.548 117.949C219.29 117.949 219.175 117.892 219.204 117.777L220.795 111.499C220.852 111.442 220.91 111.413 220.967 111.413C221.053 111.413 221.139 111.442 221.225 111.499C221.311 111.528 221.34 111.556 221.311 111.585C221.254 111.814 221.225 111.972 221.225 112.058C221.225 112.545 221.469 112.789 221.956 112.789C222.3 112.789 222.787 112.674 223.418 112.445C224.106 112.244 224.694 112.101 225.181 112.015C225.668 111.9 226.227 111.843 226.858 111.843C228.578 111.843 229.911 112.33 230.857 113.305C231.832 114.251 232.319 115.398 232.319 116.745C232.319 118.121 231.889 119.425 231.029 120.658C230.198 121.862 229.037 122.765 227.546 123.367ZM236.514 127.839C239.008 125.546 240.828 123.826 241.975 122.679C243.122 121.504 243.924 120.5 244.383 119.669C244.87 118.838 245.114 117.992 245.114 117.132C245.114 116.071 244.842 115.154 244.297 114.38C243.752 113.577 242.978 113.176 241.975 113.176C240.914 113.176 240.04 113.649 239.352 114.595C238.693 115.512 238.019 116.946 237.331 118.895C237.331 118.924 237.274 118.938 237.159 118.938C236.901 118.938 236.786 118.895 236.815 118.809L238.707 111.456C238.707 111.399 238.764 111.37 238.879 111.37C238.965 111.37 239.037 111.399 239.094 111.456C239.18 111.485 239.209 111.513 239.18 111.542C239.151 111.685 239.137 111.857 239.137 112.058C239.137 112.545 239.352 112.789 239.782 112.789C240.04 112.789 240.47 112.689 241.072 112.488C242.305 112.058 243.437 111.843 244.469 111.843C246.046 111.843 247.278 112.216 248.167 112.961C249.056 113.706 249.5 114.695 249.5 115.928C249.5 117.419 248.912 118.78 247.737 120.013C246.59 121.217 244.999 122.536 242.964 123.969L241.244 125.259C241.158 125.345 241.129 125.417 241.158 125.474C241.215 125.531 241.316 125.56 241.459 125.56C243.752 125.56 245.472 125.517 246.619 125.431C247.794 125.345 248.712 125.159 249.371 124.872C250.059 124.557 250.503 124.069 250.704 123.41C250.733 123.324 250.819 123.281 250.962 123.281C251.134 123.281 251.22 123.324 251.22 123.41L250.317 128.527C250.317 128.642 250.274 128.756 250.188 128.871C250.131 128.957 250.045 129 249.93 129H236.772C236.657 129 236.557 128.914 236.471 128.742C236.414 128.57 236.385 128.398 236.385 128.226C236.385 128.054 236.428 127.925 236.514 127.839ZM227.546 175.367C229.553 175.682 231.058 176.413 232.061 177.56C233.093 178.707 233.609 180.025 233.609 181.516C233.609 182.863 233.122 184.239 232.147 185.644C231.201 187.049 229.725 188.367 227.718 189.6C225.74 190.861 223.275 191.936 220.322 192.825C220.207 192.854 220.107 192.796 220.021 192.653C219.964 192.51 219.992 192.409 220.107 192.352C223.232 191.091 225.482 189.514 226.858 187.622C228.234 185.759 228.922 183.91 228.922 182.075C228.922 180.384 228.492 179.036 227.632 178.033C226.772 177.001 225.611 176.485 224.149 176.485C223.576 176.485 222.988 176.571 222.386 176.743C222.3 176.772 222.228 176.7 222.171 176.528C222.114 176.356 222.128 176.256 222.214 176.227C224.221 175.711 225.683 174.937 226.6 173.905C227.517 172.844 227.976 171.368 227.976 169.476C227.976 168.043 227.761 166.953 227.331 166.208C226.901 165.434 226.27 165.047 225.439 165.047C224.235 165.047 223.131 165.463 222.128 166.294C221.153 167.125 220.351 168.329 219.72 169.906C219.72 169.935 219.663 169.949 219.548 169.949C219.29 169.949 219.175 169.892 219.204 169.777L220.795 163.499C220.852 163.442 220.91 163.413 220.967 163.413C221.053 163.413 221.139 163.442 221.225 163.499C221.311 163.528 221.34 163.556 221.311 163.585C221.254 163.814 221.225 163.972 221.225 164.058C221.225 164.545 221.469 164.789 221.956 164.789C222.3 164.789 222.787 164.674 223.418 164.445C224.106 164.244 224.694 164.101 225.181 164.015C225.668 163.9 226.227 163.843 226.858 163.843C228.578 163.843 229.911 164.33 230.857 165.305C231.832 166.251 232.319 167.398 232.319 168.745C232.319 170.121 231.889 171.425 231.029 172.658C230.198 173.862 229.037 174.765 227.546 175.367ZM236.686 181C236.6 181 236.557 180.914 236.557 180.742C236.557 180.57 236.6 180.484 236.686 180.484C237.804 180.484 238.621 180.412 239.137 180.269C239.682 180.126 240.054 179.853 240.255 179.452C240.456 179.022 240.556 178.377 240.556 177.517V169.949C240.556 169.032 240.456 168.387 240.255 168.014C240.083 167.613 239.753 167.412 239.266 167.412C238.807 167.412 237.89 167.684 236.514 168.229H236.471C236.385 168.229 236.313 168.157 236.256 168.014C236.199 167.871 236.227 167.77 236.342 167.713L244.168 164.015C244.197 163.986 244.24 163.972 244.297 163.972C244.383 163.972 244.455 164.015 244.512 164.101C244.569 164.158 244.598 164.23 244.598 164.316V177.517C244.598 178.406 244.684 179.051 244.856 179.452C245.028 179.853 245.372 180.126 245.888 180.269C246.404 180.412 247.221 180.484 248.339 180.484C248.425 180.484 248.468 180.57 248.468 180.742C248.468 180.914 248.425 181 248.339 181C247.307 181 246.504 180.986 245.931 180.957L242.534 180.914L239.137 180.957C238.535 180.986 237.718 181 236.686 181Z" fill="white"/>
<line x1="199" y1="147.5" x2="284" y2="147.5" stroke="white"/>
<path d="M160.902 150C160.858 150 160.836 149.956 160.836 149.868C160.836 149.78 160.858 149.736 160.902 149.736C161.474 149.736 161.892 149.699 162.156 149.626C162.435 149.553 162.625 149.413 162.728 149.208C162.831 148.988 162.882 148.658 162.882 148.218V144.346C162.882 143.877 162.831 143.547 162.728 143.356C162.64 143.151 162.471 143.048 162.222 143.048C161.987 143.048 161.518 143.187 160.814 143.466H160.792C160.748 143.466 160.711 143.429 160.682 143.356C160.653 143.283 160.667 143.231 160.726 143.202L164.73 141.31C164.745 141.295 164.767 141.288 164.796 141.288C164.84 141.288 164.877 141.31 164.906 141.354C164.935 141.383 164.95 141.42 164.95 141.464V148.218C164.95 148.673 164.994 149.003 165.082 149.208C165.17 149.413 165.346 149.553 165.61 149.626C165.874 149.699 166.292 149.736 166.864 149.736C166.908 149.736 166.93 149.78 166.93 149.868C166.93 149.956 166.908 150 166.864 150C166.336 150 165.925 149.993 165.632 149.978L163.894 149.956L162.156 149.978C161.848 149.993 161.43 150 160.902 150ZM168.119 149.406C169.395 148.233 170.326 147.353 170.913 146.766C171.499 146.165 171.91 145.651 172.145 145.226C172.394 144.801 172.519 144.368 172.519 143.928C172.519 143.385 172.379 142.916 172.101 142.52C171.822 142.109 171.426 141.904 170.913 141.904C170.37 141.904 169.923 142.146 169.571 142.63C169.233 143.099 168.889 143.833 168.537 144.83C168.537 144.845 168.507 144.852 168.449 144.852C168.317 144.852 168.258 144.83 168.273 144.786L169.241 141.024C169.241 140.995 169.27 140.98 169.329 140.98C169.373 140.98 169.409 140.995 169.439 141.024C169.483 141.039 169.497 141.053 169.483 141.068C169.468 141.141 169.461 141.229 169.461 141.332C169.461 141.581 169.571 141.706 169.791 141.706C169.923 141.706 170.143 141.655 170.451 141.552C171.081 141.332 171.661 141.222 172.189 141.222C172.995 141.222 173.626 141.413 174.081 141.794C174.535 142.175 174.763 142.681 174.763 143.312C174.763 144.075 174.462 144.771 173.861 145.402C173.274 146.018 172.46 146.693 171.419 147.426L170.539 148.086C170.495 148.13 170.48 148.167 170.495 148.196C170.524 148.225 170.575 148.24 170.649 148.24C171.822 148.24 172.702 148.218 173.289 148.174C173.89 148.13 174.359 148.035 174.697 147.888C175.049 147.727 175.276 147.477 175.379 147.14C175.393 147.096 175.437 147.074 175.511 147.074C175.599 147.074 175.643 147.096 175.643 147.14L175.181 149.758C175.181 149.817 175.159 149.875 175.115 149.934C175.085 149.978 175.041 150 174.983 150H168.251C168.192 150 168.141 149.956 168.097 149.868C168.067 149.78 168.053 149.692 168.053 149.604C168.053 149.516 168.075 149.45 168.119 149.406ZM160.902 177C160.858 177 160.836 176.956 160.836 176.868C160.836 176.78 160.858 176.736 160.902 176.736C161.474 176.736 161.892 176.699 162.156 176.626C162.435 176.553 162.625 176.413 162.728 176.208C162.831 175.988 162.882 175.658 162.882 175.218V171.346C162.882 170.877 162.831 170.547 162.728 170.356C162.64 170.151 162.471 170.048 162.222 170.048C161.987 170.048 161.518 170.187 160.814 170.466H160.792C160.748 170.466 160.711 170.429 160.682 170.356C160.653 170.283 160.667 170.231 160.726 170.202L164.73 168.31C164.745 168.295 164.767 168.288 164.796 168.288C164.84 168.288 164.877 168.31 164.906 168.354C164.935 168.383 164.95 168.42 164.95 168.464V175.218C164.95 175.673 164.994 176.003 165.082 176.208C165.17 176.413 165.346 176.553 165.61 176.626C165.874 176.699 166.292 176.736 166.864 176.736C166.908 176.736 166.93 176.78 166.93 176.868C166.93 176.956 166.908 177 166.864 177C166.336 177 165.925 176.993 165.632 176.978L163.894 176.956L162.156 176.978C161.848 176.993 161.43 177 160.902 177ZM172.189 174.118C173.215 174.279 173.985 174.653 174.499 175.24C175.027 175.827 175.291 176.501 175.291 177.264C175.291 177.953 175.041 178.657 174.543 179.376C174.059 180.095 173.303 180.769 172.277 181.4C171.265 182.045 170.003 182.595 168.493 183.05C168.434 183.065 168.383 183.035 168.339 182.962C168.309 182.889 168.324 182.837 168.383 182.808C169.981 182.163 171.133 181.356 171.837 180.388C172.541 179.435 172.893 178.489 172.893 177.55C172.893 176.685 172.673 175.995 172.233 175.482C171.793 174.954 171.199 174.69 170.451 174.69C170.157 174.69 169.857 174.734 169.549 174.822C169.505 174.837 169.468 174.8 169.439 174.712C169.409 174.624 169.417 174.573 169.461 174.558C170.487 174.294 171.235 173.898 171.705 173.37C172.174 172.827 172.409 172.072 172.409 171.104C172.409 170.371 172.299 169.813 172.079 169.432C171.859 169.036 171.536 168.838 171.111 168.838C170.495 168.838 169.93 169.051 169.417 169.476C168.918 169.901 168.507 170.517 168.185 171.324C168.185 171.339 168.155 171.346 168.097 171.346C167.965 171.346 167.906 171.317 167.921 171.258L168.735 168.046C168.764 168.017 168.793 168.002 168.823 168.002C168.867 168.002 168.911 168.017 168.955 168.046C168.999 168.061 169.013 168.075 168.999 168.09C168.969 168.207 168.955 168.288 168.955 168.332C168.955 168.581 169.079 168.706 169.329 168.706C169.505 168.706 169.754 168.647 170.077 168.53C170.429 168.427 170.729 168.354 170.979 168.31C171.228 168.251 171.514 168.222 171.837 168.222C172.717 168.222 173.399 168.471 173.883 168.97C174.381 169.454 174.631 170.041 174.631 170.73C174.631 171.434 174.411 172.101 173.971 172.732C173.545 173.348 172.951 173.81 172.189 174.118Z" fill="white"/>
<line x1="152.905" y1="161.509" x2="183.905" y2="155.509" stroke="white"/>
<path d="M168.902 246C168.858 246 168.836 245.956 168.836 245.868C168.836 245.78 168.858 245.736 168.902 245.736C169.474 245.736 169.892 245.699 170.156 245.626C170.435 245.553 170.625 245.413 170.728 245.208C170.831 244.988 170.882 244.658 170.882 244.218V240.346C170.882 239.877 170.831 239.547 170.728 239.356C170.64 239.151 170.471 239.048 170.222 239.048C169.987 239.048 169.518 239.187 168.814 239.466H168.792C168.748 239.466 168.711 239.429 168.682 239.356C168.653 239.283 168.667 239.231 168.726 239.202L172.73 237.31C172.745 237.295 172.767 237.288 172.796 237.288C172.84 237.288 172.877 237.31 172.906 237.354C172.935 237.383 172.95 237.42 172.95 237.464V244.218C172.95 244.673 172.994 245.003 173.082 245.208C173.17 245.413 173.346 245.553 173.61 245.626C173.874 245.699 174.292 245.736 174.864 245.736C174.908 245.736 174.93 245.78 174.93 245.868C174.93 245.956 174.908 246 174.864 246C174.336 246 173.925 245.993 173.632 245.978L171.894 245.956L170.156 245.978C169.848 245.993 169.43 246 168.902 246ZM176.119 245.406C177.395 244.233 178.326 243.353 178.913 242.766C179.499 242.165 179.91 241.651 180.145 241.226C180.394 240.801 180.519 240.368 180.519 239.928C180.519 239.385 180.379 238.916 180.101 238.52C179.822 238.109 179.426 237.904 178.913 237.904C178.37 237.904 177.923 238.146 177.571 238.63C177.233 239.099 176.889 239.833 176.537 240.83C176.537 240.845 176.507 240.852 176.449 240.852C176.317 240.852 176.258 240.83 176.273 240.786L177.241 237.024C177.241 236.995 177.27 236.98 177.329 236.98C177.373 236.98 177.409 236.995 177.439 237.024C177.483 237.039 177.497 237.053 177.483 237.068C177.468 237.141 177.461 237.229 177.461 237.332C177.461 237.581 177.571 237.706 177.791 237.706C177.923 237.706 178.143 237.655 178.451 237.552C179.081 237.332 179.661 237.222 180.189 237.222C180.995 237.222 181.626 237.413 182.081 237.794C182.535 238.175 182.763 238.681 182.763 239.312C182.763 240.075 182.462 240.771 181.861 241.402C181.274 242.018 180.46 242.693 179.419 243.426L178.539 244.086C178.495 244.13 178.48 244.167 178.495 244.196C178.524 244.225 178.575 244.24 178.649 244.24C179.822 244.24 180.702 244.218 181.289 244.174C181.89 244.13 182.359 244.035 182.697 243.888C183.049 243.727 183.276 243.477 183.379 243.14C183.393 243.096 183.437 243.074 183.511 243.074C183.599 243.074 183.643 243.096 183.643 243.14L183.181 245.758C183.181 245.817 183.159 245.875 183.115 245.934C183.085 245.978 183.041 246 182.983 246H176.251C176.192 246 176.141 245.956 176.097 245.868C176.067 245.78 176.053 245.692 176.053 245.604C176.053 245.516 176.075 245.45 176.119 245.406ZM168.902 273C168.858 273 168.836 272.956 168.836 272.868C168.836 272.78 168.858 272.736 168.902 272.736C169.474 272.736 169.892 272.699 170.156 272.626C170.435 272.553 170.625 272.413 170.728 272.208C170.831 271.988 170.882 271.658 170.882 271.218V267.346C170.882 266.877 170.831 266.547 170.728 266.356C170.64 266.151 170.471 266.048 170.222 266.048C169.987 266.048 169.518 266.187 168.814 266.466H168.792C168.748 266.466 168.711 266.429 168.682 266.356C168.653 266.283 168.667 266.231 168.726 266.202L172.73 264.31C172.745 264.295 172.767 264.288 172.796 264.288C172.84 264.288 172.877 264.31 172.906 264.354C172.935 264.383 172.95 264.42 172.95 264.464V271.218C172.95 271.673 172.994 272.003 173.082 272.208C173.17 272.413 173.346 272.553 173.61 272.626C173.874 272.699 174.292 272.736 174.864 272.736C174.908 272.736 174.93 272.78 174.93 272.868C174.93 272.956 174.908 273 174.864 273C174.336 273 173.925 272.993 173.632 272.978L171.894 272.956L170.156 272.978C169.848 272.993 169.43 273 168.902 273ZM177.263 268.688C179.316 268.717 180.819 269.099 181.773 269.832C182.741 270.551 183.225 271.541 183.225 272.802C183.225 273.638 183.005 274.393 182.565 275.068C182.125 275.757 181.435 276.417 180.497 277.048C179.573 277.693 178.341 278.361 176.801 279.05H176.779C176.72 279.05 176.669 279.013 176.625 278.94C176.595 278.881 176.61 278.837 176.669 278.808C178.253 277.913 179.36 277.011 179.991 276.102C180.636 275.193 180.959 274.217 180.959 273.176C180.959 271.959 180.599 271.013 179.881 270.338C179.162 269.663 178.135 269.326 176.801 269.326C176.727 269.326 176.669 269.304 176.625 269.26C176.581 269.201 176.566 269.135 176.581 269.062L177.285 265.146C177.299 265.043 177.321 264.985 177.351 264.97C177.38 264.941 177.453 264.919 177.571 264.904C179.419 264.684 180.658 264.53 181.289 264.442C181.919 264.354 182.323 264.266 182.499 264.178C182.689 264.075 182.821 263.914 182.895 263.694C182.909 263.65 182.953 263.635 183.027 263.65C183.115 263.65 183.151 263.679 183.137 263.738L182.697 266.18C182.653 266.341 182.587 266.451 182.499 266.51C182.411 266.554 182.271 266.576 182.081 266.576L177.901 266.664C177.71 266.664 177.6 266.767 177.571 266.972L177.263 268.688Z" fill="white"/>
<line x1="161" y1="257.5" x2="192" y2="257.5" stroke="white"/>
<path d="M98.902 192C98.858 192 98.836 191.956 98.836 191.868C98.836 191.78 98.858 191.736 98.902 191.736C99.474 191.736 99.892 191.699 100.156 191.626C100.435 191.553 100.625 191.413 100.728 191.208C100.831 190.988 100.882 190.658 100.882 190.218V186.346C100.882 185.877 100.831 185.547 100.728 185.356C100.64 185.151 100.471 185.048 100.222 185.048C99.9873 185.048 99.518 185.187 98.814 185.466H98.792C98.748 185.466 98.7113 185.429 98.682 185.356C98.6527 185.283 98.6673 185.231 98.726 185.202L102.73 183.31C102.745 183.295 102.767 183.288 102.796 183.288C102.84 183.288 102.877 183.31 102.906 183.354C102.935 183.383 102.95 183.42 102.95 183.464V190.218C102.95 190.673 102.994 191.003 103.082 191.208C103.17 191.413 103.346 191.553 103.61 191.626C103.874 191.699 104.292 191.736 104.864 191.736C104.908 191.736 104.93 191.78 104.93 191.868C104.93 191.956 104.908 192 104.864 192C104.336 192 103.925 191.993 103.632 191.978L101.894 191.956L100.156 191.978C99.848 191.993 99.43 192 98.902 192ZM114.545 190.944C114.589 190.944 114.611 191.061 114.611 191.296C114.611 191.457 114.596 191.611 114.567 191.758C114.552 191.905 114.53 191.978 114.501 191.978L113.049 191.912V194.97C113.049 195.117 112.99 195.219 112.873 195.278L111.135 196.136C111.047 196.165 111.003 196.18 111.003 196.18C110.959 196.18 110.937 196.121 110.937 196.004V191.846C110.057 191.831 108.429 191.824 106.053 191.824C105.979 191.824 105.921 191.795 105.877 191.736C105.833 191.677 105.84 191.619 105.899 191.56L112.719 183.288C112.748 183.259 112.792 183.244 112.851 183.244C112.895 183.244 112.939 183.259 112.983 183.288C113.027 183.303 113.049 183.332 113.049 183.376V190.988C113.342 190.988 113.841 190.973 114.545 190.944ZM107.373 191.076C109.074 191.076 110.262 191.069 110.937 191.054V186.61L107.263 190.922C107.175 191.025 107.211 191.076 107.373 191.076ZM107.24 217.944C107.284 217.944 107.306 218.061 107.306 218.296C107.306 218.457 107.291 218.611 107.262 218.758C107.247 218.905 107.225 218.978 107.196 218.978L105.744 218.912V221.97C105.744 222.117 105.685 222.219 105.568 222.278L103.83 223.136C103.742 223.165 103.698 223.18 103.698 223.18C103.654 223.18 103.632 223.121 103.632 223.004V218.846C102.752 218.831 101.124 218.824 98.748 218.824C98.6747 218.824 98.616 218.795 98.572 218.736C98.528 218.677 98.5353 218.619 98.594 218.56L105.414 210.288C105.443 210.259 105.487 210.244 105.546 210.244C105.59 210.244 105.634 210.259 105.678 210.288C105.722 210.303 105.744 210.332 105.744 210.376L105.744 217.988C106.037 217.988 106.536 217.973 107.24 217.944ZM100.068 218.076C101.769 218.076 102.957 218.069 103.632 218.054L103.632 213.61L99.958 217.922C99.87 218.025 99.9067 218.076 100.068 218.076ZM114.831 212.664C115.785 212.664 116.503 212.95 116.987 213.522C117.471 214.079 117.713 214.739 117.713 215.502C117.713 216.191 117.508 216.829 117.097 217.416C116.687 217.988 116.122 218.443 115.403 218.78C114.699 219.117 113.929 219.286 113.093 219.286C111.788 219.286 110.754 218.861 109.991 218.01C109.229 217.145 108.847 215.957 108.847 214.446C108.847 213.067 109.17 211.718 109.815 210.398C110.461 209.063 111.385 207.875 112.587 206.834C113.805 205.793 115.22 205.001 116.833 204.458C116.892 204.443 116.936 204.473 116.965 204.546C116.995 204.619 116.987 204.671 116.943 204.7C115.682 205.331 114.611 206.159 113.731 207.186C112.851 208.198 112.191 209.305 111.751 210.508C111.311 211.711 111.091 212.921 111.091 214.138C111.091 214.989 111.194 215.766 111.399 216.47C111.619 217.174 111.927 217.731 112.323 218.142C112.719 218.553 113.174 218.758 113.687 218.758C114.23 218.758 114.663 218.531 114.985 218.076C115.308 217.607 115.469 216.961 115.469 216.14C115.469 215.363 115.315 214.747 115.007 214.292C114.699 213.823 114.245 213.588 113.643 213.588C113.379 213.588 113.13 213.639 112.895 213.742C112.661 213.83 112.389 213.984 112.081 214.204C112.067 214.219 112.045 214.226 112.015 214.226C111.971 214.226 111.927 214.204 111.883 214.16C111.839 214.116 111.825 214.079 111.839 214.05C112.69 213.126 113.687 212.664 114.831 212.664Z" fill="white"/>
<line x1="92.0302" y1="199.501" x2="125.03" y2="201.501" stroke="white"/>
<path d="M16.24 54.944C16.284 54.944 16.306 55.0613 16.306 55.296C16.306 55.4573 16.2913 55.6113 16.262 55.758C16.2473 55.9047 16.2253 55.978 16.196 55.978L14.744 55.912V58.97C14.744 59.1167 14.6853 59.2193 14.568 59.278L12.83 60.136C12.742 60.1653 12.698 60.18 12.698 60.18C12.654 60.18 12.632 60.1213 12.632 60.004V55.846C11.752 55.8313 10.124 55.824 7.748 55.824C7.67467 55.824 7.616 55.7947 7.572 55.736C7.528 55.6773 7.53533 55.6187 7.594 55.56L14.414 47.288C14.4433 47.2587 14.4873 47.244 14.546 47.244C14.59 47.244 14.634 47.2587 14.678 47.288C14.722 47.3027 14.744 47.332 14.744 47.376L14.744 54.988C15.0373 54.988 15.536 54.9733 16.24 54.944ZM9.068 55.076C10.7693 55.076 11.9573 55.0687 12.632 55.054V50.61L8.958 54.922C8.87 55.0247 8.90667 55.076 9.068 55.076ZM26.2732 54.944C26.3172 54.944 26.3392 55.0613 26.3392 55.296C26.3392 55.4573 26.3245 55.6113 26.2952 55.758C26.2805 55.9047 26.2585 55.978 26.2292 55.978L24.7772 55.912V58.97C24.7772 59.1167 24.7185 59.2193 24.6012 59.278L22.8632 60.136C22.7752 60.1653 22.7312 60.18 22.7312 60.18C22.6872 60.18 22.6652 60.1213 22.6652 60.004V55.846C21.7852 55.8313 20.1572 55.824 17.7812 55.824C17.7079 55.824 17.6492 55.7947 17.6052 55.736C17.5612 55.6773 17.5685 55.6187 17.6272 55.56L24.4472 47.288C24.4765 47.2587 24.5205 47.244 24.5792 47.244C24.6232 47.244 24.6672 47.2587 24.7112 47.288C24.7552 47.3027 24.7772 47.332 24.7772 47.376V54.988C25.0705 54.988 25.5692 54.9733 26.2732 54.944ZM19.1012 55.076C20.8025 55.076 21.9905 55.0687 22.6652 55.054L22.6652 50.61L18.9912 54.922C18.9032 55.0247 18.9399 55.076 19.1012 55.076ZM7.814 82.406C9.09 81.2327 10.0213 80.3527 10.608 79.766C11.1947 79.1647 11.6053 78.6513 11.84 78.226C12.0893 77.8007 12.214 77.368 12.214 76.928C12.214 76.3853 12.0747 75.916 11.796 75.52C11.5173 75.1093 11.1213 74.904 10.608 74.904C10.0653 74.904 9.618 75.146 9.266 75.63C8.92867 76.0993 8.584 76.8327 8.232 77.83C8.232 77.8447 8.20267 77.852 8.144 77.852C8.012 77.852 7.95333 77.83 7.968 77.786L8.936 74.024C8.936 73.9947 8.96533 73.98 9.024 73.98C9.068 73.98 9.10467 73.9947 9.134 74.024C9.178 74.0387 9.19267 74.0533 9.178 74.068C9.16333 74.1413 9.156 74.2293 9.156 74.332C9.156 74.5813 9.266 74.706 9.486 74.706C9.618 74.706 9.838 74.6547 10.146 74.552C10.7767 74.332 11.356 74.222 11.884 74.222C12.6907 74.222 13.3213 74.4127 13.776 74.794C14.2307 75.1753 14.458 75.6813 14.458 76.312C14.458 77.0747 14.1573 77.7713 13.556 78.402C12.9693 79.018 12.1553 79.6927 11.114 80.426L10.234 81.086C10.19 81.13 10.1753 81.1667 10.19 81.196C10.2193 81.2253 10.2707 81.24 10.344 81.24C11.5173 81.24 12.3973 81.218 12.984 81.174C13.5853 81.13 14.0547 81.0347 14.392 80.888C14.744 80.7267 14.9713 80.4773 15.074 80.14C15.0887 80.096 15.1327 80.074 15.206 80.074C15.294 80.074 15.338 80.096 15.338 80.14L14.876 82.758C14.876 82.8167 14.854 82.8753 14.81 82.934C14.7807 82.978 14.7367 83 14.678 83H7.946C7.88733 83 7.836 82.956 7.792 82.868C7.76267 82.78 7.748 82.692 7.748 82.604C7.748 82.516 7.77 82.45 7.814 82.406ZM21.1316 83.286C20.2222 83.286 19.4082 83.088 18.6896 82.692C17.9856 82.296 17.4282 81.7533 17.0176 81.064C16.6216 80.36 16.4236 79.5753 16.4236 78.71C16.4236 77.8447 16.6216 77.0747 17.0176 76.4C17.4282 75.7107 17.9856 75.1753 18.6896 74.794C19.4082 74.4127 20.2222 74.222 21.1316 74.222C22.0409 74.222 22.8476 74.42 23.5516 74.816C24.2556 75.1973 24.7982 75.7327 25.1796 76.422C25.5756 77.1113 25.7736 77.8887 25.7736 78.754C25.7736 79.6193 25.5756 80.3967 25.1796 81.086C24.7836 81.7753 24.2336 82.318 23.5296 82.714C22.8256 83.0953 22.0262 83.286 21.1316 83.286ZM21.3516 82.824C22.0262 82.824 22.5322 82.494 22.8696 81.834C23.2216 81.174 23.3976 80.25 23.3976 79.062C23.3976 77.5807 23.1629 76.4807 22.6936 75.762C22.2389 75.0433 21.6596 74.684 20.9556 74.684C20.2662 74.684 19.7309 75.0287 19.3496 75.718C18.9682 76.3927 18.7776 77.3093 18.7776 78.468C18.7776 79.7733 19.0122 80.8293 19.4816 81.636C19.9509 82.428 20.5742 82.824 21.3516 82.824Z" fill="white"/>
<line x1="0.0302475" y1="67.5009" x2="33.0303" y2="69.5009" stroke="white"/>
<path d="M20.763 181C20.677 181 20.634 180.914 20.634 180.742C20.634 180.57 20.677 180.484 20.763 180.484C21.881 180.484 22.698 180.412 23.214 180.269C23.7587 180.126 24.1313 179.853 24.332 179.452C24.5327 179.022 24.633 178.377 24.633 177.517L24.633 169.949C24.633 169.032 24.5327 168.387 24.332 168.014C24.16 167.613 23.8303 167.412 23.343 167.412C22.8843 167.412 21.967 167.684 20.591 168.229H20.548C20.462 168.229 20.3903 168.157 20.333 168.014C20.2757 167.871 20.3043 167.77 20.419 167.713L28.245 164.015C28.2737 163.986 28.3167 163.972 28.374 163.972C28.46 163.972 28.5317 164.015 28.589 164.101C28.6463 164.158 28.675 164.23 28.675 164.316L28.675 177.517C28.675 178.406 28.761 179.051 28.933 179.452C29.105 179.853 29.449 180.126 29.965 180.269C30.481 180.412 31.298 180.484 32.416 180.484C32.502 180.484 32.545 180.57 32.545 180.742C32.545 180.914 32.502 181 32.416 181C31.384 181 30.5813 180.986 30.008 180.957L26.611 180.914L23.214 180.957C22.612 180.986 21.795 181 20.763 181ZM34.8683 179.839C37.3623 177.546 39.1827 175.826 40.3293 174.679C41.476 173.504 42.2787 172.5 42.7373 171.669C43.2247 170.838 43.4683 169.992 43.4683 169.132C43.4683 168.071 43.196 167.154 42.6513 166.38C42.1067 165.577 41.3327 165.176 40.3293 165.176C39.2687 165.176 38.3943 165.649 37.7063 166.595C37.047 167.512 36.3733 168.946 35.6853 170.895C35.6853 170.924 35.628 170.938 35.5133 170.938C35.2553 170.938 35.1407 170.895 35.1693 170.809L37.0613 163.456C37.0613 163.399 37.1187 163.37 37.2333 163.37C37.3193 163.37 37.391 163.399 37.4483 163.456C37.5343 163.485 37.563 163.513 37.5343 163.542C37.5057 163.685 37.4913 163.857 37.4913 164.058C37.4913 164.545 37.7063 164.789 38.1363 164.789C38.3943 164.789 38.8243 164.689 39.4263 164.488C40.659 164.058 41.7913 163.843 42.8233 163.843C44.4 163.843 45.6327 164.216 46.5213 164.961C47.41 165.706 47.8543 166.695 47.8543 167.928C47.8543 169.419 47.2667 170.78 46.0913 172.013C44.9447 173.217 43.3537 174.536 41.3183 175.969L39.5983 177.259C39.5123 177.345 39.4837 177.417 39.5123 177.474C39.5697 177.531 39.67 177.56 39.8133 177.56C42.1067 177.56 43.8267 177.517 44.9733 177.431C46.1487 177.345 47.066 177.159 47.7253 176.872C48.4133 176.557 48.8577 176.069 49.0583 175.41C49.087 175.324 49.173 175.281 49.3163 175.281C49.4883 175.281 49.5743 175.324 49.5743 175.41L48.6713 180.527C48.6713 180.642 48.6283 180.756 48.5423 180.871C48.485 180.957 48.399 181 48.2843 181H35.1263C35.0117 181 34.9113 180.914 34.8253 180.742C34.768 180.57 34.7393 180.398 34.7393 180.226C34.7393 180.054 34.7823 179.925 34.8683 179.839ZM37.06 230.936C37.146 230.936 37.189 231.165 37.189 231.624C37.189 231.939 37.1603 232.24 37.103 232.527C37.0743 232.814 37.0313 232.957 36.974 232.957L34.136 232.828V238.805C34.136 239.092 34.0213 239.292 33.792 239.407L30.395 241.084C30.223 241.141 30.137 241.17 30.137 241.17C30.051 241.17 30.008 241.055 30.008 240.826V232.699C28.288 232.67 25.106 232.656 20.462 232.656C20.3187 232.656 20.204 232.599 20.118 232.484C20.032 232.369 20.0463 232.255 20.161 232.14L33.491 215.972C33.5483 215.915 33.6343 215.886 33.749 215.886C33.835 215.886 33.921 215.915 34.007 215.972C34.093 216.001 34.136 216.058 34.136 216.144V231.022C34.7093 231.022 35.684 230.993 37.06 230.936ZM23.042 231.194C26.3673 231.194 28.6893 231.18 30.008 231.151V222.465L22.827 230.893C22.655 231.094 22.7267 231.194 23.042 231.194ZM52.2414 218.165C53.5887 218.996 54.678 219.742 55.5094 220.401C56.3694 221.06 57.086 221.849 57.6594 222.766C58.2327 223.683 58.5194 224.744 58.5194 225.948C58.5194 227.41 58.0894 228.729 57.2294 229.904C56.3694 231.051 55.2084 231.954 53.7464 232.613C52.2844 233.244 50.6934 233.559 48.9734 233.559C47.2534 233.559 45.7197 233.244 44.3724 232.613C43.0537 231.954 42.0217 231.079 41.2764 229.99C40.5597 228.901 40.2014 227.711 40.2014 226.421C40.2014 224.902 40.6887 223.468 41.6634 222.121C42.638 220.774 43.971 219.67 45.6624 218.81C43.7704 217.262 42.8244 215.571 42.8244 213.736C42.8244 212.503 43.1684 211.486 43.8564 210.683C44.5444 209.88 45.4044 209.293 46.4364 208.92C47.497 208.519 48.572 208.318 49.6614 208.318C50.9514 208.318 52.0837 208.547 53.0584 209.006C54.0617 209.436 54.8214 209.995 55.3374 210.683C55.8534 211.371 56.1114 212.073 56.1114 212.79C56.1114 213.707 55.7387 214.653 54.9934 215.628C54.2767 216.603 53.2734 217.391 51.9834 217.993L52.2414 218.165ZM49.2314 209.221C48.4287 209.221 47.7837 209.493 47.2964 210.038C46.8377 210.554 46.6084 211.213 46.6084 212.016C46.6084 213.105 47.0097 214.066 47.8124 214.897C48.615 215.728 49.819 216.66 51.4244 217.692C52.1124 216.001 52.4564 214.61 52.4564 213.521C52.4564 212.26 52.141 211.228 51.5104 210.425C50.8797 209.622 50.12 209.221 49.2314 209.221ZM50.1344 232.613C51.4817 232.613 52.5567 232.126 53.3594 231.151C54.162 230.176 54.5634 229.015 54.5634 227.668C54.5634 226.693 54.3197 225.833 53.8324 225.088C53.3737 224.314 52.786 223.669 52.0694 223.153C51.3527 222.608 50.4067 221.978 49.2314 221.261L48.5004 220.788C47.8984 220.415 47.2677 220 46.6084 219.541C46.0064 220.258 45.519 221.118 45.1464 222.121C44.8024 223.124 44.6304 224.171 44.6304 225.26C44.6304 226.55 44.8597 227.768 45.3184 228.915C45.8057 230.033 46.465 230.936 47.2964 231.624C48.1564 232.283 49.1024 232.613 50.1344 232.613Z" fill="white"/>
<line y1="199.5" x2="44" y2="199.5" stroke="white"/>
<path d="M375.5 332.5C375.5 349.284 366.154 364.522 350.956 375.583C335.759 386.643 314.74 393.5 291.5 393.5C268.26 393.5 247.241 386.643 232.044 375.583C216.846 364.522 207.5 349.284 207.5 332.5C207.5 315.716 216.846 300.478 232.044 289.417C247.241 278.357 268.26 271.5 291.5 271.5C314.74 271.5 335.759 278.357 350.956 289.417C366.154 300.478 375.5 315.716 375.5 332.5Z" stroke="#8000FF"/>
<path d="M369.5 327.5C369.5 344.284 360.154 359.522 344.956 370.583C329.759 381.643 308.74 388.5 285.5 388.5C262.26 388.5 241.241 381.643 226.044 370.583C210.846 359.522 201.5 344.284 201.5 327.5C201.5 310.716 210.846 295.478 226.044 284.417C241.241 273.357 262.26 266.5 285.5 266.5C308.74 266.5 329.759 273.357 344.956 284.417C360.154 295.478 369.5 310.716 369.5 327.5Z" stroke="#8000FF"/>
</svg>
